<mxfile host="app.diagrams.net" modified="2024-04-02T17:52:11.532Z" agent="Mozilla/5.0 (Windows NT 10.0; Win64; x64) AppleWebKit/537.36 (KHTML, like Gecko) Chrome/121.0.0.0 Safari/537.36 OPR/107.0.0.0" etag="9N1RrkoPAGnGmelWmNmD" version="24.2.1" type="github">
  <diagram id="C5RBs43oDa-KdzZeNtuy" name="Page-1">
    <mxGraphModel dx="1548" dy="877" grid="1" gridSize="10" guides="1" tooltips="1" connect="1" arrows="1" fold="1" page="1" pageScale="1" pageWidth="827" pageHeight="1169" math="0" shadow="0">
      <root>
        <mxCell id="WIyWlLk6GJQsqaUBKTNV-0" />
        <mxCell id="WIyWlLk6GJQsqaUBKTNV-1" parent="WIyWlLk6GJQsqaUBKTNV-0" />
        <mxCell id="8X5V0u15hU3Hr5En1X3r-0" value="User" style="swimlane;fontStyle=1;align=center;verticalAlign=top;childLayout=stackLayout;horizontal=1;startSize=26;horizontalStack=0;resizeParent=1;resizeParentMax=0;resizeLast=0;collapsible=1;marginBottom=0;whiteSpace=wrap;html=1;" vertex="1" parent="WIyWlLk6GJQsqaUBKTNV-1">
          <mxGeometry x="334" y="90" width="476" height="472" as="geometry">
            <mxRectangle x="334" y="90" width="70" height="30" as="alternateBounds" />
          </mxGeometry>
        </mxCell>
        <mxCell id="8X5V0u15hU3Hr5En1X3r-1" value="- id: string" style="text;strokeColor=none;fillColor=none;align=left;verticalAlign=top;spacingLeft=4;spacingRight=4;overflow=hidden;rotatable=0;points=[[0,0.5],[1,0.5]];portConstraint=eastwest;whiteSpace=wrap;html=1;" vertex="1" parent="8X5V0u15hU3Hr5En1X3r-0">
          <mxGeometry y="26" width="476" height="26" as="geometry" />
        </mxCell>
        <mxCell id="8X5V0u15hU3Hr5En1X3r-5" value="- email: string" style="text;strokeColor=none;fillColor=none;align=left;verticalAlign=top;spacingLeft=4;spacingRight=4;overflow=hidden;rotatable=0;points=[[0,0.5],[1,0.5]];portConstraint=eastwest;whiteSpace=wrap;html=1;" vertex="1" parent="8X5V0u15hU3Hr5En1X3r-0">
          <mxGeometry y="52" width="476" height="26" as="geometry" />
        </mxCell>
        <mxCell id="8X5V0u15hU3Hr5En1X3r-13" value="- firstName: string" style="text;strokeColor=none;fillColor=none;align=left;verticalAlign=top;spacingLeft=4;spacingRight=4;overflow=hidden;rotatable=0;points=[[0,0.5],[1,0.5]];portConstraint=eastwest;whiteSpace=wrap;html=1;" vertex="1" parent="8X5V0u15hU3Hr5En1X3r-0">
          <mxGeometry y="78" width="476" height="26" as="geometry" />
        </mxCell>
        <mxCell id="8X5V0u15hU3Hr5En1X3r-14" value="- lastName: string" style="text;strokeColor=none;fillColor=none;align=left;verticalAlign=top;spacingLeft=4;spacingRight=4;overflow=hidden;rotatable=0;points=[[0,0.5],[1,0.5]];portConstraint=eastwest;whiteSpace=wrap;html=1;" vertex="1" parent="8X5V0u15hU3Hr5En1X3r-0">
          <mxGeometry y="104" width="476" height="26" as="geometry" />
        </mxCell>
        <mxCell id="8X5V0u15hU3Hr5En1X3r-15" value="- birthDate: date" style="text;strokeColor=none;fillColor=none;align=left;verticalAlign=top;spacingLeft=4;spacingRight=4;overflow=hidden;rotatable=0;points=[[0,0.5],[1,0.5]];portConstraint=eastwest;whiteSpace=wrap;html=1;" vertex="1" parent="8X5V0u15hU3Hr5En1X3r-0">
          <mxGeometry y="130" width="476" height="26" as="geometry" />
        </mxCell>
        <mxCell id="8X5V0u15hU3Hr5En1X3r-6" value="- password: string" style="text;strokeColor=none;fillColor=none;align=left;verticalAlign=top;spacingLeft=4;spacingRight=4;overflow=hidden;rotatable=0;points=[[0,0.5],[1,0.5]];portConstraint=eastwest;whiteSpace=wrap;html=1;" vertex="1" parent="8X5V0u15hU3Hr5En1X3r-0">
          <mxGeometry y="156" width="476" height="26" as="geometry" />
        </mxCell>
        <mxCell id="8X5V0u15hU3Hr5En1X3r-51" value="- city: city" style="text;strokeColor=none;fillColor=none;align=left;verticalAlign=top;spacingLeft=4;spacingRight=4;overflow=hidden;rotatable=0;points=[[0,0.5],[1,0.5]];portConstraint=eastwest;whiteSpace=wrap;html=1;" vertex="1" parent="8X5V0u15hU3Hr5En1X3r-0">
          <mxGeometry y="182" width="476" height="26" as="geometry" />
        </mxCell>
        <mxCell id="8X5V0u15hU3Hr5En1X3r-44" value="- gender: gender" style="text;strokeColor=none;fillColor=none;align=left;verticalAlign=top;spacingLeft=4;spacingRight=4;overflow=hidden;rotatable=0;points=[[0,0.5],[1,0.5]];portConstraint=eastwest;whiteSpace=wrap;html=1;" vertex="1" parent="8X5V0u15hU3Hr5En1X3r-0">
          <mxGeometry y="208" width="476" height="26" as="geometry" />
        </mxCell>
        <mxCell id="8X5V0u15hU3Hr5En1X3r-18" value="- address: string" style="text;strokeColor=none;fillColor=none;align=left;verticalAlign=top;spacingLeft=4;spacingRight=4;overflow=hidden;rotatable=0;points=[[0,0.5],[1,0.5]];portConstraint=eastwest;whiteSpace=wrap;html=1;" vertex="1" parent="8X5V0u15hU3Hr5En1X3r-0">
          <mxGeometry y="234" width="476" height="26" as="geometry" />
        </mxCell>
        <mxCell id="8X5V0u15hU3Hr5En1X3r-16" value="- JMBG: string" style="text;strokeColor=none;fillColor=none;align=left;verticalAlign=top;spacingLeft=4;spacingRight=4;overflow=hidden;rotatable=0;points=[[0,0.5],[1,0.5]];portConstraint=eastwest;whiteSpace=wrap;html=1;" vertex="1" parent="8X5V0u15hU3Hr5En1X3r-0">
          <mxGeometry y="260" width="476" height="26" as="geometry" />
        </mxCell>
        <mxCell id="8X5V0u15hU3Hr5En1X3r-28" value="- legalEntities: LegalEninity[0..*]" style="text;strokeColor=none;fillColor=none;align=left;verticalAlign=top;spacingLeft=4;spacingRight=4;overflow=hidden;rotatable=0;points=[[0,0.5],[1,0.5]];portConstraint=eastwest;whiteSpace=wrap;html=1;" vertex="1" parent="8X5V0u15hU3Hr5En1X3r-0">
          <mxGeometry y="286" width="476" height="26" as="geometry" />
        </mxCell>
        <mxCell id="8X5V0u15hU3Hr5En1X3r-2" value="" style="line;strokeWidth=1;fillColor=none;align=left;verticalAlign=middle;spacingTop=-1;spacingLeft=3;spacingRight=3;rotatable=0;labelPosition=right;points=[];portConstraint=eastwest;strokeColor=inherit;" vertex="1" parent="8X5V0u15hU3Hr5En1X3r-0">
          <mxGeometry y="312" width="476" height="8" as="geometry" />
        </mxCell>
        <mxCell id="8X5V0u15hU3Hr5En1X3r-3" value="+ ConfirmAccountWithDocument(): boolean" style="text;strokeColor=none;fillColor=none;align=left;verticalAlign=top;spacingLeft=4;spacingRight=4;overflow=hidden;rotatable=0;points=[[0,0.5],[1,0.5]];portConstraint=eastwest;whiteSpace=wrap;html=1;" vertex="1" parent="8X5V0u15hU3Hr5En1X3r-0">
          <mxGeometry y="320" width="476" height="38" as="geometry" />
        </mxCell>
        <mxCell id="8X5V0u15hU3Hr5En1X3r-17" value="+ UpdateInfo(): boolean" style="text;strokeColor=none;fillColor=none;align=left;verticalAlign=top;spacingLeft=4;spacingRight=4;overflow=hidden;rotatable=0;points=[[0,0.5],[1,0.5]];portConstraint=eastwest;whiteSpace=wrap;html=1;" vertex="1" parent="8X5V0u15hU3Hr5En1X3r-0">
          <mxGeometry y="358" width="476" height="38" as="geometry" />
        </mxCell>
        <mxCell id="8X5V0u15hU3Hr5En1X3r-19" value="+ RequestCriminalHistoryRecord(): boolean" style="text;strokeColor=none;fillColor=none;align=left;verticalAlign=top;spacingLeft=4;spacingRight=4;overflow=hidden;rotatable=0;points=[[0,0.5],[1,0.5]];portConstraint=eastwest;whiteSpace=wrap;html=1;" vertex="1" parent="8X5V0u15hU3Hr5En1X3r-0">
          <mxGeometry y="396" width="476" height="38" as="geometry" />
        </mxCell>
        <mxCell id="8X5V0u15hU3Hr5En1X3r-80" value="+ ViewAllLegalEntites(): LegalEntity[0..*]" style="text;strokeColor=none;fillColor=none;align=left;verticalAlign=top;spacingLeft=4;spacingRight=4;overflow=hidden;rotatable=0;points=[[0,0.5],[1,0.5]];portConstraint=eastwest;whiteSpace=wrap;html=1;" vertex="1" parent="8X5V0u15hU3Hr5En1X3r-0">
          <mxGeometry y="434" width="476" height="38" as="geometry" />
        </mxCell>
        <mxCell id="8X5V0u15hU3Hr5En1X3r-11" value="1..*" style="text;html=1;align=center;verticalAlign=middle;resizable=0;points=[];autosize=1;strokeColor=none;fillColor=none;" vertex="1" parent="WIyWlLk6GJQsqaUBKTNV-1">
          <mxGeometry x="630" y="562" width="40" height="30" as="geometry" />
        </mxCell>
        <mxCell id="8X5V0u15hU3Hr5En1X3r-24" value="LegalEntity" style="swimlane;fontStyle=0;childLayout=stackLayout;horizontal=1;startSize=26;fillColor=none;horizontalStack=0;resizeParent=1;resizeParentMax=0;resizeLast=0;collapsible=1;marginBottom=0;whiteSpace=wrap;html=1;" vertex="1" parent="WIyWlLk6GJQsqaUBKTNV-1">
          <mxGeometry x="595" y="630" width="140" height="208" as="geometry" />
        </mxCell>
        <mxCell id="8X5V0u15hU3Hr5En1X3r-25" value="- title: string" style="text;strokeColor=none;fillColor=none;align=left;verticalAlign=top;spacingLeft=4;spacingRight=4;overflow=hidden;rotatable=0;points=[[0,0.5],[1,0.5]];portConstraint=eastwest;whiteSpace=wrap;html=1;" vertex="1" parent="8X5V0u15hU3Hr5En1X3r-24">
          <mxGeometry y="26" width="140" height="26" as="geometry" />
        </mxCell>
        <mxCell id="8X5V0u15hU3Hr5En1X3r-26" value="- description: string" style="text;strokeColor=none;fillColor=none;align=left;verticalAlign=top;spacingLeft=4;spacingRight=4;overflow=hidden;rotatable=0;points=[[0,0.5],[1,0.5]];portConstraint=eastwest;whiteSpace=wrap;html=1;" vertex="1" parent="8X5V0u15hU3Hr5En1X3r-24">
          <mxGeometry y="52" width="140" height="26" as="geometry" />
        </mxCell>
        <mxCell id="8X5V0u15hU3Hr5En1X3r-42" value="- issueDate: date" style="text;strokeColor=none;fillColor=none;align=left;verticalAlign=top;spacingLeft=4;spacingRight=4;overflow=hidden;rotatable=0;points=[[0,0.5],[1,0.5]];portConstraint=eastwest;whiteSpace=wrap;html=1;" vertex="1" parent="8X5V0u15hU3Hr5En1X3r-24">
          <mxGeometry y="78" width="140" height="26" as="geometry" />
        </mxCell>
        <mxCell id="8X5V0u15hU3Hr5En1X3r-43" value="-&amp;nbsp; dueToDate: date[0..1]" style="text;strokeColor=none;fillColor=none;align=left;verticalAlign=top;spacingLeft=4;spacingRight=4;overflow=hidden;rotatable=0;points=[[0,0.5],[1,0.5]];portConstraint=eastwest;whiteSpace=wrap;html=1;" vertex="1" parent="8X5V0u15hU3Hr5En1X3r-24">
          <mxGeometry y="104" width="140" height="26" as="geometry" />
        </mxCell>
        <mxCell id="8X5V0u15hU3Hr5En1X3r-79" value="-&amp;nbsp; address: string[0..1]" style="text;strokeColor=none;fillColor=none;align=left;verticalAlign=top;spacingLeft=4;spacingRight=4;overflow=hidden;rotatable=0;points=[[0,0.5],[1,0.5]];portConstraint=eastwest;whiteSpace=wrap;html=1;" vertex="1" parent="8X5V0u15hU3Hr5En1X3r-24">
          <mxGeometry y="130" width="140" height="26" as="geometry" />
        </mxCell>
        <mxCell id="8X5V0u15hU3Hr5En1X3r-27" value="- People: user[1..*]" style="text;strokeColor=none;fillColor=none;align=left;verticalAlign=top;spacingLeft=4;spacingRight=4;overflow=hidden;rotatable=0;points=[[0,0.5],[1,0.5]];portConstraint=eastwest;whiteSpace=wrap;html=1;" vertex="1" parent="8X5V0u15hU3Hr5En1X3r-24">
          <mxGeometry y="156" width="140" height="26" as="geometry" />
        </mxCell>
        <mxCell id="8X5V0u15hU3Hr5En1X3r-59" value="- Court: court[0..1]" style="text;strokeColor=none;fillColor=none;align=left;verticalAlign=top;spacingLeft=4;spacingRight=4;overflow=hidden;rotatable=0;points=[[0,0.5],[1,0.5]];portConstraint=eastwest;whiteSpace=wrap;html=1;" vertex="1" parent="8X5V0u15hU3Hr5En1X3r-24">
          <mxGeometry y="182" width="140" height="26" as="geometry" />
        </mxCell>
        <mxCell id="8X5V0u15hU3Hr5En1X3r-30" value="" style="endArrow=none;html=1;rounded=0;" edge="1" parent="WIyWlLk6GJQsqaUBKTNV-1" source="8X5V0u15hU3Hr5En1X3r-0" target="8X5V0u15hU3Hr5En1X3r-24">
          <mxGeometry width="50" height="50" relative="1" as="geometry">
            <mxPoint x="680" y="500" as="sourcePoint" />
            <mxPoint x="730" y="450" as="targetPoint" />
          </mxGeometry>
        </mxCell>
        <mxCell id="8X5V0u15hU3Hr5En1X3r-31" value="0..*" style="text;html=1;align=center;verticalAlign=middle;resizable=0;points=[];autosize=1;strokeColor=none;fillColor=none;" vertex="1" parent="WIyWlLk6GJQsqaUBKTNV-1">
          <mxGeometry x="655" y="600" width="40" height="30" as="geometry" />
        </mxCell>
        <mxCell id="8X5V0u15hU3Hr5En1X3r-32" value="Court" style="swimlane;fontStyle=1;align=center;verticalAlign=top;childLayout=stackLayout;horizontal=1;startSize=26;horizontalStack=0;resizeParent=1;resizeParentMax=0;resizeLast=0;collapsible=1;marginBottom=0;whiteSpace=wrap;html=1;" vertex="1" parent="WIyWlLk6GJQsqaUBKTNV-1">
          <mxGeometry x="910" y="860" width="720" height="242" as="geometry" />
        </mxCell>
        <mxCell id="8X5V0u15hU3Hr5En1X3r-33" value="- id: string" style="text;strokeColor=none;fillColor=none;align=left;verticalAlign=top;spacingLeft=4;spacingRight=4;overflow=hidden;rotatable=0;points=[[0,0.5],[1,0.5]];portConstraint=eastwest;whiteSpace=wrap;html=1;" vertex="1" parent="8X5V0u15hU3Hr5En1X3r-32">
          <mxGeometry y="26" width="720" height="26" as="geometry" />
        </mxCell>
        <mxCell id="8X5V0u15hU3Hr5En1X3r-36" value="-name: string" style="text;strokeColor=none;fillColor=none;align=left;verticalAlign=top;spacingLeft=4;spacingRight=4;overflow=hidden;rotatable=0;points=[[0,0.5],[1,0.5]];portConstraint=eastwest;whiteSpace=wrap;html=1;" vertex="1" parent="8X5V0u15hU3Hr5En1X3r-32">
          <mxGeometry y="52" width="720" height="26" as="geometry" />
        </mxCell>
        <mxCell id="8X5V0u15hU3Hr5En1X3r-37" value="-address: string" style="text;strokeColor=none;fillColor=none;align=left;verticalAlign=top;spacingLeft=4;spacingRight=4;overflow=hidden;rotatable=0;points=[[0,0.5],[1,0.5]];portConstraint=eastwest;whiteSpace=wrap;html=1;" vertex="1" parent="8X5V0u15hU3Hr5En1X3r-32">
          <mxGeometry y="78" width="720" height="26" as="geometry" />
        </mxCell>
        <mxCell id="8X5V0u15hU3Hr5En1X3r-34" value="" style="line;strokeWidth=1;fillColor=none;align=left;verticalAlign=middle;spacingTop=-1;spacingLeft=3;spacingRight=3;rotatable=0;labelPosition=right;points=[];portConstraint=eastwest;strokeColor=inherit;" vertex="1" parent="8X5V0u15hU3Hr5En1X3r-32">
          <mxGeometry y="104" width="720" height="8" as="geometry" />
        </mxCell>
        <mxCell id="8X5V0u15hU3Hr5En1X3r-35" value="+ IssueCriminalRecord(type): LegalEntity" style="text;strokeColor=none;fillColor=none;align=left;verticalAlign=top;spacingLeft=4;spacingRight=4;overflow=hidden;rotatable=0;points=[[0,0.5],[1,0.5]];portConstraint=eastwest;whiteSpace=wrap;html=1;" vertex="1" parent="8X5V0u15hU3Hr5En1X3r-32">
          <mxGeometry y="112" width="720" height="26" as="geometry" />
        </mxCell>
        <mxCell id="8X5V0u15hU3Hr5En1X3r-38" value="+ SuspendDrivingLicence(jmbg: string): LegalEntity" style="text;strokeColor=none;fillColor=none;align=left;verticalAlign=top;spacingLeft=4;spacingRight=4;overflow=hidden;rotatable=0;points=[[0,0.5],[1,0.5]];portConstraint=eastwest;whiteSpace=wrap;html=1;" vertex="1" parent="8X5V0u15hU3Hr5En1X3r-32">
          <mxGeometry y="138" width="720" height="26" as="geometry" />
        </mxCell>
        <mxCell id="8X5V0u15hU3Hr5En1X3r-39" value="+ ScheduleHearing(suspectJmbg: string, judgeJmbg: string, witnesses: string[], description: string,title: string): LegalEntity" style="text;strokeColor=none;fillColor=none;align=left;verticalAlign=top;spacingLeft=4;spacingRight=4;overflow=hidden;rotatable=0;points=[[0,0.5],[1,0.5]];portConstraint=eastwest;whiteSpace=wrap;html=1;" vertex="1" parent="8X5V0u15hU3Hr5En1X3r-32">
          <mxGeometry y="164" width="720" height="26" as="geometry" />
        </mxCell>
        <mxCell id="8X5V0u15hU3Hr5En1X3r-77" value="+ IssueHouseSearchWarrant(jmbg: string, description: string,title: string): LegalEntity" style="text;strokeColor=none;fillColor=none;align=left;verticalAlign=top;spacingLeft=4;spacingRight=4;overflow=hidden;rotatable=0;points=[[0,0.5],[1,0.5]];portConstraint=eastwest;whiteSpace=wrap;html=1;" vertex="1" parent="8X5V0u15hU3Hr5En1X3r-32">
          <mxGeometry y="190" width="720" height="26" as="geometry" />
        </mxCell>
        <mxCell id="8X5V0u15hU3Hr5En1X3r-40" value="+ IssueCustomLegalEntity(jmbgs: string[], description: string,title: string): LegalEntity" style="text;strokeColor=none;fillColor=none;align=left;verticalAlign=top;spacingLeft=4;spacingRight=4;overflow=hidden;rotatable=0;points=[[0,0.5],[1,0.5]];portConstraint=eastwest;whiteSpace=wrap;html=1;" vertex="1" parent="8X5V0u15hU3Hr5En1X3r-32">
          <mxGeometry y="216" width="720" height="26" as="geometry" />
        </mxCell>
        <mxCell id="8X5V0u15hU3Hr5En1X3r-47" value="&lt;div&gt;&lt;span style=&quot;background-color: initial;&quot;&gt;&amp;lt;&amp;lt;enumeration&amp;gt;&amp;gt;&lt;/span&gt;&lt;/div&gt;&lt;span style=&quot;background-color: initial;&quot;&gt;gender&lt;/span&gt;" style="swimlane;fontStyle=0;childLayout=stackLayout;horizontal=1;startSize=26;fillColor=none;horizontalStack=0;resizeParent=1;resizeParentMax=0;resizeLast=0;collapsible=1;marginBottom=0;whiteSpace=wrap;html=1;" vertex="1" parent="WIyWlLk6GJQsqaUBKTNV-1">
          <mxGeometry x="920" y="100" width="170" height="78" as="geometry" />
        </mxCell>
        <mxCell id="8X5V0u15hU3Hr5En1X3r-48" value="MUSKO" style="text;strokeColor=none;fillColor=none;align=left;verticalAlign=top;spacingLeft=4;spacingRight=4;overflow=hidden;rotatable=0;points=[[0,0.5],[1,0.5]];portConstraint=eastwest;whiteSpace=wrap;html=1;" vertex="1" parent="8X5V0u15hU3Hr5En1X3r-47">
          <mxGeometry y="26" width="170" height="26" as="geometry" />
        </mxCell>
        <mxCell id="8X5V0u15hU3Hr5En1X3r-50" value="ZENSKO" style="text;strokeColor=none;fillColor=none;align=left;verticalAlign=top;spacingLeft=4;spacingRight=4;overflow=hidden;rotatable=0;points=[[0,0.5],[1,0.5]];portConstraint=eastwest;whiteSpace=wrap;html=1;" vertex="1" parent="8X5V0u15hU3Hr5En1X3r-47">
          <mxGeometry y="52" width="170" height="26" as="geometry" />
        </mxCell>
        <mxCell id="8X5V0u15hU3Hr5En1X3r-52" value="&lt;div&gt;&lt;span style=&quot;background-color: initial;&quot;&gt;&amp;lt;&amp;lt;enumeration&amp;gt;&amp;gt;&lt;/span&gt;&lt;/div&gt;city" style="swimlane;fontStyle=0;childLayout=stackLayout;horizontal=1;startSize=26;fillColor=none;horizontalStack=0;resizeParent=1;resizeParentMax=0;resizeLast=0;collapsible=1;marginBottom=0;whiteSpace=wrap;html=1;" vertex="1" parent="WIyWlLk6GJQsqaUBKTNV-1">
          <mxGeometry x="920" y="268" width="170" height="104" as="geometry" />
        </mxCell>
        <mxCell id="8X5V0u15hU3Hr5En1X3r-53" value="NOVI SAD" style="text;strokeColor=none;fillColor=none;align=left;verticalAlign=top;spacingLeft=4;spacingRight=4;overflow=hidden;rotatable=0;points=[[0,0.5],[1,0.5]];portConstraint=eastwest;whiteSpace=wrap;html=1;" vertex="1" parent="8X5V0u15hU3Hr5En1X3r-52">
          <mxGeometry y="26" width="170" height="26" as="geometry" />
        </mxCell>
        <mxCell id="8X5V0u15hU3Hr5En1X3r-54" value="BEOGRAD" style="text;strokeColor=none;fillColor=none;align=left;verticalAlign=top;spacingLeft=4;spacingRight=4;overflow=hidden;rotatable=0;points=[[0,0.5],[1,0.5]];portConstraint=eastwest;whiteSpace=wrap;html=1;" vertex="1" parent="8X5V0u15hU3Hr5En1X3r-52">
          <mxGeometry y="52" width="170" height="26" as="geometry" />
        </mxCell>
        <mxCell id="8X5V0u15hU3Hr5En1X3r-55" value="BACKA PALANKA" style="text;strokeColor=none;fillColor=none;align=left;verticalAlign=top;spacingLeft=4;spacingRight=4;overflow=hidden;rotatable=0;points=[[0,0.5],[1,0.5]];portConstraint=eastwest;whiteSpace=wrap;html=1;" vertex="1" parent="8X5V0u15hU3Hr5En1X3r-52">
          <mxGeometry y="78" width="170" height="26" as="geometry" />
        </mxCell>
        <mxCell id="8X5V0u15hU3Hr5En1X3r-56" value="" style="endArrow=none;html=1;rounded=0;" edge="1" parent="WIyWlLk6GJQsqaUBKTNV-1" source="8X5V0u15hU3Hr5En1X3r-32" target="8X5V0u15hU3Hr5En1X3r-24">
          <mxGeometry width="50" height="50" relative="1" as="geometry">
            <mxPoint x="1060" y="750" as="sourcePoint" />
            <mxPoint x="1110" y="700" as="targetPoint" />
          </mxGeometry>
        </mxCell>
        <mxCell id="8X5V0u15hU3Hr5En1X3r-57" value="1" style="text;html=1;align=center;verticalAlign=middle;resizable=0;points=[];autosize=1;strokeColor=none;fillColor=none;" vertex="1" parent="WIyWlLk6GJQsqaUBKTNV-1">
          <mxGeometry x="930" y="820" width="30" height="30" as="geometry" />
        </mxCell>
        <mxCell id="8X5V0u15hU3Hr5En1X3r-58" value="0..*" style="text;html=1;align=center;verticalAlign=middle;resizable=0;points=[];autosize=1;strokeColor=none;fillColor=none;" vertex="1" parent="WIyWlLk6GJQsqaUBKTNV-1">
          <mxGeometry x="745" y="720" width="40" height="30" as="geometry" />
        </mxCell>
        <mxCell id="8X5V0u15hU3Hr5En1X3r-66" value="CourtHearing" style="swimlane;fontStyle=1;align=center;verticalAlign=top;childLayout=stackLayout;horizontal=1;startSize=26;horizontalStack=0;resizeParent=1;resizeParentMax=0;resizeLast=0;collapsible=1;marginBottom=0;whiteSpace=wrap;html=1;" vertex="1" parent="WIyWlLk6GJQsqaUBKTNV-1">
          <mxGeometry x="990" y="570" width="160" height="164" as="geometry" />
        </mxCell>
        <mxCell id="8X5V0u15hU3Hr5En1X3r-67" value="- court: court" style="text;strokeColor=none;fillColor=none;align=left;verticalAlign=top;spacingLeft=4;spacingRight=4;overflow=hidden;rotatable=0;points=[[0,0.5],[1,0.5]];portConstraint=eastwest;whiteSpace=wrap;html=1;" vertex="1" parent="8X5V0u15hU3Hr5En1X3r-66">
          <mxGeometry y="26" width="160" height="26" as="geometry" />
        </mxCell>
        <mxCell id="8X5V0u15hU3Hr5En1X3r-70" value="- legalEntity: LegalEntity" style="text;strokeColor=none;fillColor=none;align=left;verticalAlign=top;spacingLeft=4;spacingRight=4;overflow=hidden;rotatable=0;points=[[0,0.5],[1,0.5]];portConstraint=eastwest;whiteSpace=wrap;html=1;" vertex="1" parent="8X5V0u15hU3Hr5En1X3r-66">
          <mxGeometry y="52" width="160" height="26" as="geometry" />
        </mxCell>
        <mxCell id="8X5V0u15hU3Hr5En1X3r-71" value="- judge: user" style="text;strokeColor=none;fillColor=none;align=left;verticalAlign=top;spacingLeft=4;spacingRight=4;overflow=hidden;rotatable=0;points=[[0,0.5],[1,0.5]];portConstraint=eastwest;whiteSpace=wrap;html=1;" vertex="1" parent="8X5V0u15hU3Hr5En1X3r-66">
          <mxGeometry y="78" width="160" height="26" as="geometry" />
        </mxCell>
        <mxCell id="8X5V0u15hU3Hr5En1X3r-72" value="- suspect: user" style="text;strokeColor=none;fillColor=none;align=left;verticalAlign=top;spacingLeft=4;spacingRight=4;overflow=hidden;rotatable=0;points=[[0,0.5],[1,0.5]];portConstraint=eastwest;whiteSpace=wrap;html=1;" vertex="1" parent="8X5V0u15hU3Hr5En1X3r-66">
          <mxGeometry y="104" width="160" height="26" as="geometry" />
        </mxCell>
        <mxCell id="8X5V0u15hU3Hr5En1X3r-73" value="- witnesses: user" style="text;strokeColor=none;fillColor=none;align=left;verticalAlign=top;spacingLeft=4;spacingRight=4;overflow=hidden;rotatable=0;points=[[0,0.5],[1,0.5]];portConstraint=eastwest;whiteSpace=wrap;html=1;" vertex="1" parent="8X5V0u15hU3Hr5En1X3r-66">
          <mxGeometry y="130" width="160" height="26" as="geometry" />
        </mxCell>
        <mxCell id="8X5V0u15hU3Hr5En1X3r-68" value="" style="line;strokeWidth=1;fillColor=none;align=left;verticalAlign=middle;spacingTop=-1;spacingLeft=3;spacingRight=3;rotatable=0;labelPosition=right;points=[];portConstraint=eastwest;strokeColor=inherit;" vertex="1" parent="8X5V0u15hU3Hr5En1X3r-66">
          <mxGeometry y="156" width="160" height="8" as="geometry" />
        </mxCell>
        <mxCell id="8X5V0u15hU3Hr5En1X3r-74" value="" style="endArrow=none;html=1;rounded=0;" edge="1" parent="WIyWlLk6GJQsqaUBKTNV-1" source="8X5V0u15hU3Hr5En1X3r-32" target="8X5V0u15hU3Hr5En1X3r-66">
          <mxGeometry width="50" height="50" relative="1" as="geometry">
            <mxPoint x="1020" y="820" as="sourcePoint" />
            <mxPoint x="1070" y="770" as="targetPoint" />
          </mxGeometry>
        </mxCell>
        <mxCell id="8X5V0u15hU3Hr5En1X3r-75" value="1" style="text;html=1;align=center;verticalAlign=middle;resizable=0;points=[];autosize=1;strokeColor=none;fillColor=none;" vertex="1" parent="WIyWlLk6GJQsqaUBKTNV-1">
          <mxGeometry x="1200" y="830" width="30" height="30" as="geometry" />
        </mxCell>
        <mxCell id="8X5V0u15hU3Hr5En1X3r-76" value="0..*" style="text;html=1;align=center;verticalAlign=middle;resizable=0;points=[];autosize=1;strokeColor=none;fillColor=none;" vertex="1" parent="WIyWlLk6GJQsqaUBKTNV-1">
          <mxGeometry x="1140" y="734" width="40" height="30" as="geometry" />
        </mxCell>
      </root>
    </mxGraphModel>
  </diagram>
</mxfile>
